<svg xmlns="http://www.w3.org/2000/svg" id="bb519672-660f-4760-8097-de28f9496b1f" data-name="Layer 1" width="75" height="66" viewBox="0 0 75 66"><path id="aea2bee2-dae8-42fd-b111-1f95b424b8cf" data-name="Fill-1-Copy-13" d="M53.3653,19.386c-9.8693,32.2855,6.1235,31.8329-7.1389,41.2306A29.1943,29.1943,0,0,1,5.3387,53.4179a29.7533,29.7533,0,0,1,7.1385-41.23C25.74,2.79,63.2345-12.8994,53.3653,19.386" style="fill-rule:evenodd;opacity:0.05"></path><path d="M74.0612,53.5585,48.8259,29.301a1.1,1.1,0,0,0-1.5121,0,.9994.9994,0,0,0,0,1.4543L62.04,44.9113l-1.8523,1.4822L48.8259,35.4721a1.1,1.1,0,0,0-1.5121,0,.9994.9994,0,0,0,0,1.4543L69.3388,58.098a3.3049,3.3049,0,0,0,4.538,0l.1844-.1764A3.0042,3.0042,0,0,0,74.0612,53.5585Zm-1.5129,2.9087-.1836.1765a1.1006,1.1006,0,0,1-1.5138,0l-9.0576-8.7066,1.8523-1.4823,8.9027,8.5581A1.0022,1.0022,0,0,1,72.5483,56.4672Z" style="fill-rule:evenodd"></path><path d="M47.2544,33.7969l-.9478-6.4245,6.692-2.7772a1.0157,1.0157,0,0,0,0-1.8918l-6.692-2.7772.9478-6.4244a1.02,1.02,0,0,0-.4854-1.0161,1.0882,1.0882,0,0,0-1.1573.014l-5.79,3.7358L34.0324,12.5a1.0882,1.0882,0,0,0-1.1573-.014,1.0182,1.0182,0,0,0-.4853,1.0161l.9477,6.4244-6.6928,2.7772a1.0161,1.0161,0,0,0,0,1.8918l6.6928,2.7772L32.39,33.7969a1.0176,1.0176,0,0,0,.4853,1.0161,1.09,1.09,0,0,0,1.1573-.014l5.7893-3.7359,5.79,3.7359a1.09,1.09,0,0,0,1.1573.014A1.0191,1.0191,0,0,0,47.2544,33.7969Zm-2.5353-8.0057a1.0239,1.0239,0,0,0-.6338,1.0917l.7271,4.9269-4.401-2.8413a1.0928,1.0928,0,0,0-1.1786,0L34.8317,31.81l.7271-4.9269a1.0247,1.0247,0,0,0-.6338-1.0917l-5.1621-2.1423,5.1621-2.1415a1.0245,1.0245,0,0,0,.6338-1.0916l-.7271-4.927L39.2328,18.33a1.09,1.09,0,0,0,1.1786,0l4.401-2.8414-.7271,4.927a1.0237,1.0237,0,0,0,.6338,1.0916L49.88,23.6489Z" style="fill-rule:evenodd"></path><path d="M40.0052,14a1,1,0,0,0,0-2h-.02A.9889.9889,0,0,0,39,13,1.0057,1.0057,0,0,0,40.0052,14Z" style="fill-rule:evenodd"></path><path d="M50.0044,18a1,1,0,0,0,0-2h-.02A.9882.9882,0,0,0,49,17,1.0057,1.0057,0,0,0,50.0044,18Z" style="fill-rule:evenodd"></path><path d="M29.0052,18a1,1,0,0,0,0-2h-.02A.9889.9889,0,0,0,28,17,1.0063,1.0063,0,0,0,29.0052,18Z" style="fill-rule:evenodd"></path><path d="M40.0052,32h-.02A.9889.9889,0,0,0,39,33a1,1,0,1,0,1.0052-1Z" style="fill-rule:evenodd"></path><path d="M29.0052,28h-.02A.9889.9889,0,0,0,28,29a1,1,0,1,0,1.0052-1Z" style="fill-rule:evenodd"></path></svg>