<svg xmlns="http://www.w3.org/2000/svg" width="149" height="32" viewBox="0 0 149 32" fill="none"><path d="M14.0524 0C17.6018 0 20.4031 0.234668 22.4564 0.704002C24.5391 1.17333 26.0351 1.92133 26.9444 2.948C27.8831 3.97467 28.3524 5.368 28.3524 7.128C28.3524 9.47467 27.6484 11.2053 26.2404 12.32C24.8324 13.4347 22.5884 14.1533 19.5084 14.476C22.0311 14.6813 24.0551 15.0773 25.5804 15.664C27.1058 16.2507 28.2204 17.116 28.9244 18.26C29.6578 19.3747 30.0244 20.856 30.0244 22.704C30.0244 24.7573 29.4671 26.3707 28.3524 27.544C27.2378 28.7173 25.5071 29.5533 23.1604 30.052C20.8431 30.5507 17.7191 30.8 13.7884 30.8H0.544434V29.92L2.17243 29.568C2.61243 29.48 2.8911 29.3773 3.00843 29.26C3.1551 29.1427 3.22843 28.9227 3.22843 28.6V2.2C3.22843 1.87733 3.1551 1.65734 3.00843 1.54C2.8911 1.42267 2.61243 1.32 2.17243 1.232L0.544434 0.880003V0H14.0524ZM14.3604 13.904C16.1791 13.904 17.5284 13.3467 18.4084 12.232C19.2884 11.1173 19.7284 9.416 19.7284 7.128C19.7284 5.16267 19.2884 3.71067 18.4084 2.772C17.5578 1.804 16.2084 1.32 14.3604 1.32H12.2044V13.904H14.3604ZM12.2044 29.48H14.1844C18.7018 29.48 20.9604 27.2213 20.9604 22.704C20.9604 20.064 20.4911 18.1573 19.5524 16.984C18.6138 15.8107 16.9418 15.224 14.5364 15.224H12.2044V29.48Z" fill="#E23125"></path><path d="M50.3427 12.056C50.3427 11.7333 50.2694 11.5133 50.1227 11.396C50.0054 11.2787 49.7267 11.176 49.2867 11.088L47.7467 10.736V9.944L58.3947 8.624H59.1427V28.688C59.1427 29.0107 59.2014 29.2307 59.3187 29.348C59.4654 29.4653 59.7587 29.568 60.1987 29.656L61.7387 30.008V30.8H52.8067C51.9561 30.8 51.3401 30.624 50.9587 30.272C50.6067 29.8907 50.4307 29.304 50.4307 28.512V28.028C49.3747 28.9373 48.0401 29.7147 46.4267 30.36C44.8134 31.0053 43.0241 31.328 41.0587 31.328C38.3307 31.328 36.3801 30.756 35.2067 29.612C34.0334 28.468 33.4467 26.752 33.4467 24.464V12.056C33.4467 11.7333 33.3734 11.5133 33.2267 11.396C33.1094 11.2787 32.8307 11.176 32.3907 11.088L30.8507 10.736V9.944L41.4987 8.624H42.2467V25.256C42.2467 26.576 42.4521 27.5147 42.8627 28.072C43.3027 28.6293 44.0214 28.908 45.0187 28.908C46.7787 28.908 48.5534 28.1747 50.3427 26.708V12.056Z" fill="#E23125"></path><path d="M72.0629 19.536C72.0922 22.792 72.6055 25.2707 73.6029 26.972C74.6295 28.6733 76.5362 29.524 79.3229 29.524C80.7015 29.524 81.9189 29.3187 82.9749 28.908C84.0602 28.4973 85.1749 27.9107 86.3189 27.148L86.8909 27.984C84.1629 30.2133 80.5549 31.328 76.0669 31.328C72.0189 31.328 68.8215 30.36 66.4749 28.424C64.1575 26.4587 62.9989 23.5987 62.9989 19.844C62.9989 16.2947 64.1869 13.5813 66.5629 11.704C68.9389 9.82667 72.2682 8.888 76.5509 8.888C78.9855 8.888 81.0389 9.26934 82.7109 10.032C84.3829 10.7947 85.6149 11.8213 86.4069 13.112C87.2282 14.3733 87.6389 15.7813 87.6389 17.336C87.6389 18.128 87.5655 18.8613 87.4189 19.536H72.0629ZM76.2869 9.944C74.6735 9.944 73.5735 10.6187 72.9869 11.968C72.4002 13.3173 72.0922 15.4587 72.0629 18.392H79.4549V15.092C79.4549 13.3027 79.2349 11.9973 78.7949 11.176C78.3842 10.3547 77.5482 9.944 76.2869 9.944Z" fill="#E23125"></path><path d="M117.196 28.688C117.196 29.0107 117.254 29.2307 117.372 29.348C117.518 29.4653 117.812 29.568 118.252 29.656L119.792 30.008V30.8H110.64C109.848 30.8 109.276 30.5947 108.924 30.184C108.572 29.7733 108.396 29.1573 108.396 28.336V14.96C108.396 13.64 108.176 12.7013 107.736 12.144C107.325 11.5867 106.621 11.308 105.624 11.308C103.864 11.308 102.06 12.0413 100.212 13.508V28.688C100.212 29.0107 100.27 29.2453 100.388 29.392C100.534 29.5093 100.813 29.612 101.224 29.7L102.72 30.008V30.8H88.8158V30.008L90.3558 29.656C90.7958 29.568 91.0745 29.4653 91.1918 29.348C91.3385 29.2307 91.4118 29.0107 91.4118 28.688V12.056C91.4118 11.7333 91.3385 11.5133 91.1918 11.396C91.0745 11.2787 90.7958 11.176 90.3558 11.088L88.8158 10.736V9.944L99.3758 8.624H100.124V12.188C101.238 11.2787 102.602 10.5013 104.216 9.856C105.829 9.21067 107.618 8.888 109.584 8.888C112.312 8.888 114.262 9.46 115.436 10.604C116.609 11.748 117.196 13.464 117.196 15.752V28.688Z" fill="#E23125"></path><path d="M148.416 20.108C148.416 23.892 147.228 26.708 144.852 28.556C142.505 30.404 139.117 31.328 134.688 31.328C130.258 31.328 126.856 30.404 124.48 28.556C122.133 26.708 120.96 23.892 120.96 20.108C120.96 16.324 122.133 13.508 124.48 11.66C126.856 9.812 130.258 8.888 134.688 8.888C139.117 8.888 142.505 9.812 144.852 11.66C147.228 13.508 148.416 16.324 148.416 20.108ZM130.112 20.108C130.112 22.7187 130.229 24.728 130.464 26.136C130.728 27.544 131.182 28.5707 131.828 29.216C132.473 29.8613 133.426 30.184 134.688 30.184C135.949 30.184 136.902 29.8613 137.548 29.216C138.193 28.5707 138.633 27.544 138.868 26.136C139.132 24.728 139.264 22.7187 139.264 20.108C139.264 17.4973 139.132 15.488 138.868 14.08C138.633 12.672 138.193 11.6453 137.548 11C136.902 10.3547 135.949 10.032 134.688 10.032C133.426 10.032 132.473 10.3547 131.828 11C131.182 11.6453 130.728 12.672 130.464 14.08C130.229 15.488 130.112 17.4973 130.112 20.108Z" fill="#E23125"></path></svg>