<svg xmlns="http://www.w3.org/2000/svg" width="100" height="37" viewBox="0 0 100 37" fill="none"><path d="M17.0716 0.863998C18.9916 0.863998 20.6236 1.136 21.9676 1.68C23.3116 2.224 24.6236 2.992 25.9036 3.984C26.2556 4.272 26.5596 4.416 26.8156 4.416C27.4556 4.416 27.8716 3.456 28.0636 1.536H29.1676C29.0396 3.712 28.9756 7.584 28.9756 13.152H27.8716C27.5836 10.784 27.1996 8.976 26.7196 7.728C26.2396 6.48 25.4236 5.392 24.2716 4.464C23.4716 3.696 22.5436 3.12 21.4876 2.736C20.4316 2.32 19.3276 2.112 18.1756 2.112C14.9436 2.112 12.5436 3.696 10.9756 6.864C9.40759 10 8.62359 13.92 8.62359 18.624C8.62359 23.296 9.43959 27.2 11.0716 30.336C12.7036 33.472 15.1356 35.04 18.3676 35.04C19.4556 35.04 20.5276 34.848 21.5836 34.464C22.6716 34.048 23.5836 33.456 24.3196 32.688C25.5036 31.792 26.3196 30.672 26.7676 29.328C27.2476 27.984 27.6156 26.016 27.8716 23.424H28.9756C28.9756 29.216 29.0396 33.248 29.1676 35.52H28.0636C27.9676 34.496 27.8236 33.776 27.6316 33.36C27.4716 32.912 27.2316 32.688 26.9116 32.688C26.6556 32.688 26.3196 32.816 25.9036 33.072C24.4636 34.096 23.0876 34.88 21.7756 35.424C20.4636 35.936 18.8796 36.192 17.0236 36.192C13.6316 36.192 10.6556 35.504 8.09559 34.128C5.56759 32.752 3.59959 30.768 2.19159 28.176C0.78359 25.552 0.0795898 22.432 0.0795898 18.816C0.0795898 15.296 0.79959 12.176 2.23959 9.456C3.67959 6.736 5.67959 4.624 8.23959 3.12C10.8316 1.616 13.7756 0.863998 17.0716 0.863998Z" fill="#E23125"></path><path d="M58.1313 21.408C58.1313 22.08 58.0513 22.816 57.8913 23.616H39.3153C39.4113 25.632 39.9233 27.088 40.8513 27.984C41.7793 28.848 42.9633 29.28 44.4033 29.28C45.6193 29.28 46.6273 28.976 47.4273 28.368C48.2273 27.76 48.7553 26.976 49.0113 26.016H57.6993C57.3473 27.904 56.5793 29.6 55.3953 31.104C54.2113 32.576 52.7073 33.744 50.8833 34.608C49.0593 35.44 47.0273 35.856 44.7873 35.856C42.1633 35.856 39.8273 35.312 37.7793 34.224C35.7633 33.104 34.1793 31.504 33.0273 29.424C31.8753 27.344 31.2993 24.912 31.2993 22.128C31.2993 19.312 31.8593 16.88 32.9793 14.832C34.1313 12.752 35.7313 11.168 37.7793 10.08C39.8273 8.96 42.1633 8.4 44.7873 8.4C47.4433 8.4 49.7793 8.944 51.7953 10.032C53.8113 11.12 55.3633 12.656 56.4513 14.64C57.5713 16.592 58.1313 18.848 58.1313 21.408ZM49.8273 20.16C49.8593 18.4 49.3793 17.088 48.3873 16.224C47.4273 15.328 46.2273 14.88 44.7873 14.88C43.2833 14.88 42.0353 15.328 41.0433 16.224C40.0513 17.12 39.4913 18.432 39.3633 20.16H49.8273Z" fill="#E23125"></path><path d="M68.6181 0V35.52H60.4101V0H68.6181Z" fill="#E23125"></path><path d="M82.4611 8.4C84.5091 8.4 86.2691 8.864 87.7411 9.792C89.2131 10.72 90.3011 11.984 91.0051 13.584V8.736H99.1651V35.52H91.0051V30.672C90.3011 32.272 89.2131 33.536 87.7411 34.464C86.2691 35.392 84.5091 35.856 82.4611 35.856C80.2531 35.856 78.2691 35.312 76.5091 34.224C74.7811 33.104 73.4051 31.504 72.3811 29.424C71.3891 27.344 70.8931 24.912 70.8931 22.128C70.8931 19.312 71.3891 16.88 72.3811 14.832C73.4051 12.752 74.7811 11.168 76.5091 10.08C78.2691 8.96 80.2531 8.4 82.4611 8.4ZM85.1011 15.6C83.3411 15.6 81.9171 16.176 80.8291 17.328C79.7731 18.48 79.2451 20.08 79.2451 22.128C79.2451 24.176 79.7731 25.776 80.8291 26.928C81.9171 28.08 83.3411 28.656 85.1011 28.656C86.8291 28.656 88.2371 28.064 89.3251 26.88C90.4451 25.696 91.0051 24.112 91.0051 22.128C91.0051 20.112 90.4451 18.528 89.3251 17.376C88.2371 16.192 86.8291 15.6 85.1011 15.6Z" fill="#E23125"></path></svg>