<svg xmlns="http://www.w3.org/2000/svg" id="e66eb5a5-9f6b-4cb0-8522-9073ed00685d" data-name="Layer 1" width="75.2886" height="66" viewBox="0 0 75.2886 66"><path id="bc123845-4d43-4dbe-a5e8-79d22f5d4e8a" data-name="Fill-1-Copy-11" d="M53.3653,19.386c-9.8693,32.2855,6.1235,31.8329-7.1389,41.2306A29.1943,29.1943,0,0,1,5.3387,53.4179a29.7533,29.7533,0,0,1,7.1385-41.23C25.74,2.79,63.2345-12.8994,53.3653,19.386" style="fill-rule:evenodd;opacity:0.05"></path><path d="M70.05,10.7255H30.2389A5.2547,5.2547,0,0,0,25,15.9836V51.7414A5.2542,5.2542,0,0,0,30.2389,57H70.05a5.2542,5.2542,0,0,0,5.2388-5.2581V15.9836A5.2547,5.2547,0,0,0,70.05,10.7255ZM30.2389,12.8287H70.05a3.1528,3.1528,0,0,1,3.1436,3.1549v2.9052H27.0953V15.9836A3.1528,3.1528,0,0,1,30.2389,12.8287ZM70.05,54.8971H30.2389a3.1535,3.1535,0,0,1-3.1436-3.1557V21.3948H73.1934V51.7414A3.1535,3.1535,0,0,1,70.05,54.8971Z" style="fill-rule:evenodd"></path><circle cx="31.0004" cy="16" r="1"></circle><path d="M34.0008,17a1,1,0,1,0-1-1A1,1,0,0,0,34.0008,17Z" style="fill-rule:evenodd"></path><circle cx="37.0004" cy="16" r="1"></circle><path d="M50,25c-8.27,0-15,5.7958-15,12.92S41.7306,50.84,50,50.84a17.1356,17.1356,0,0,0,4.5554-.62l4.5983,2.6432a1.0366,1.0366,0,0,0,1.5044-1.2057l-1.1341-3.77A12.3576,12.3576,0,0,0,65,37.92C65,30.7958,58.2711,25,50,25Zm7.7589,21.5716a1.04,1.04,0,0,0-.44,1.1816l.6027,2.0046-2.7183-1.5633a1.037,1.037,0,0,0-.5144-.1371,1.0583,1.0583,0,0,0-.3.044A15.0349,15.0349,0,0,1,50,48.7581c-7.1288,0-12.9289-4.8616-12.9289-10.8384S42.8716,27.0813,50,27.0813,62.9293,31.9438,62.9293,37.92A10.2917,10.2917,0,0,1,57.7593,46.5716Z" style="fill-rule:evenodd"></path><circle cx="44.0004" cy="38" r="2"></circle><circle cx="50.0004" cy="38" r="2"></circle><circle cx="56.0004" cy="38" r="2"></circle></svg>