<svg xmlns="http://www.w3.org/2000/svg" width="163" height="35" viewBox="0 0 163 35" fill="none"><path d="M29.2651 0.48H36.8011L40.1611 24.528H40.2571L43.6171 0.48H51.1531V34.08H46.1611V8.64H46.0651L42.2251 34.08H37.8091L33.9691 8.64H33.8731V34.08H29.2651V0.48Z" fill="#E23125"></path><path d="M62.7733 34.56C60.2133 34.56 58.2613 33.84 56.9173 32.4C55.5733 30.928 54.9013 28.832 54.9013 26.112V0.48H60.1813V26.496C60.1813 27.648 60.4053 28.48 60.8533 28.992C61.3333 29.504 62.0053 29.76 62.8693 29.76C63.7333 29.76 64.3893 29.504 64.8373 28.992C65.3173 28.48 65.5573 27.648 65.5573 26.496V0.48H70.6453V26.112C70.6453 28.832 69.9733 30.928 68.6293 32.4C67.2853 33.84 65.3333 34.56 62.7733 34.56Z" fill="#E23125"></path><path d="M81.2698 34.56C78.7098 34.56 76.7738 33.84 75.4618 32.4C74.1498 30.928 73.4938 28.832 73.4938 26.112V24.192H78.4858V26.496C78.4858 28.672 79.3978 29.76 81.2218 29.76C82.1178 29.76 82.7898 29.504 83.2378 28.992C83.7178 28.448 83.9578 27.584 83.9578 26.4C83.9578 24.992 83.6378 23.76 82.9978 22.704C82.3578 21.616 81.1738 20.32 79.4458 18.816C77.2698 16.896 75.7498 15.168 74.8858 13.632C74.0218 12.064 73.5898 10.304 73.5898 8.352C73.5898 5.696 74.2618 3.648 75.6058 2.208C76.9498 0.736 78.9018 0 81.4618 0C83.9898 0 85.8938 0.736 87.1738 2.208C88.4858 3.648 89.1418 5.728 89.1418 8.448V9.84H84.1498V8.112C84.1498 6.96 83.9258 6.128 83.4778 5.616C83.0298 5.072 82.3738 4.8 81.5098 4.8C79.7498 4.8 78.8698 5.872 78.8698 8.016C78.8698 9.232 79.1898 10.368 79.8298 11.424C80.5018 12.48 81.7018 13.76 83.4298 15.264C85.6378 17.184 87.1578 18.928 87.9898 20.496C88.8218 22.064 89.2378 23.904 89.2378 26.016C89.2378 28.768 88.5498 30.88 87.1738 32.352C85.8298 33.824 83.8618 34.56 81.2698 34.56Z" fill="#E23125"></path><path d="M96.3931 5.28H90.8731V0.48H107.193V5.28H101.673V34.08H96.3931V5.28Z" fill="#E23125"></path><path d="M111.626 0.48H118.778L124.25 34.08H118.97L118.01 27.408V27.504H112.01L111.05 34.08H106.154L111.626 0.48ZM117.386 22.944L115.034 6.336H114.938L112.634 22.944H117.386Z" fill="#E23125"></path><path d="M126.812 0.48H134.636C137.356 0.48 139.34 1.12 140.588 2.4C141.836 3.648 142.46 5.584 142.46 8.208V10.272C142.46 13.76 141.308 15.968 139.004 16.896V16.992C140.284 17.376 141.18 18.16 141.692 19.344C142.236 20.528 142.508 22.112 142.508 24.096V30C142.508 30.96 142.54 31.744 142.604 32.352C142.668 32.928 142.828 33.504 143.084 34.08H137.708C137.516 33.536 137.388 33.024 137.324 32.544C137.26 32.064 137.228 31.2 137.228 29.952V23.808C137.228 22.272 136.972 21.2 136.46 20.592C135.98 19.984 135.132 19.68 133.916 19.68H132.092V34.08H126.812V0.48ZM134.012 14.88C135.068 14.88 135.852 14.608 136.364 14.064C136.908 13.52 137.18 12.608 137.18 11.328V8.736C137.18 7.52 136.956 6.64 136.508 6.096C136.092 5.552 135.42 5.28 134.492 5.28H132.092V14.88H134.012Z" fill="#E23125"></path><path d="M146.171 0.48H154.235C156.859 0.48 158.827 1.184 160.139 2.592C161.451 4 162.107 6.064 162.107 8.784V25.776C162.107 28.496 161.451 30.56 160.139 31.968C158.827 33.376 156.859 34.08 154.235 34.08H146.171V0.48ZM154.139 29.28C155.003 29.28 155.659 29.024 156.107 28.512C156.587 28 156.827 27.168 156.827 26.016V8.544C156.827 7.392 156.587 6.56 156.107 6.048C155.659 5.536 155.003 5.28 154.139 5.28H151.451V29.28H154.139Z" fill="#E23125"></path><path d="M2.56562 22.0801H0.265625V20.0801H7.06563V22.0801H4.76562V34.0801H2.56562V22.0801Z" fill="#E23125"></path><path d="M8.13078 20.0801H10.3308V25.7801H12.6908V20.0801H14.8908V34.0801H12.6908V27.7801H10.3308V34.0801H8.13078V20.0801Z" fill="#E23125"></path><path d="M16.5292 20.0801H22.5292V22.0801H18.7292V25.7801H21.7492V27.7801H18.7292V32.0801H22.5292V34.0801H16.5292V20.0801Z" fill="#E23125"></path></svg>