<svg xmlns="http://www.w3.org/2000/svg" width="171" height="51" viewBox="0 0 171 51" fill="none"><path d="M0 0H171V51H0V0Z" fill="#E23125"></path><path d="M16.9765 25.5856C16.9765 26.7104 17.2399 27.6885 17.7667 28.5199C18.2935 29.3514 18.9903 29.9953 19.8569 30.4517C20.7236 30.8919 21.6668 31.112 22.6864 31.112C23.9439 31.112 25.0145 30.8837 25.8982 30.4273C26.7988 29.9708 27.5466 29.4166 28.1413 28.7645V32.7259C27.4106 33.2801 26.6204 33.7121 25.7707 34.0219C24.921 34.3316 23.842 34.4865 22.5334 34.4865C21.157 34.4865 19.8824 34.2746 18.7099 33.8507C17.5543 33.4106 16.5517 32.7992 15.702 32.0167C14.8523 31.2342 14.1896 30.2969 13.7137 29.2046C13.2379 28.1124 13 26.906 13 25.5856C13 24.2651 13.2379 23.0588 13.7137 21.9665C14.1896 20.8743 14.8523 19.9369 15.702 19.1544C16.5517 18.3719 17.5543 17.7688 18.7099 17.3449C19.8824 16.9048 21.157 16.6847 22.5334 16.6847C23.842 16.6847 24.921 16.8396 25.7707 17.1493C26.6204 17.4427 27.4106 17.8747 28.1413 18.4453V22.4067C27.5466 21.7383 26.7988 21.184 25.8982 20.7439C25.0145 20.2874 23.9439 20.0592 22.6864 20.0592C21.6668 20.0592 20.7236 20.2874 19.8569 20.7439C18.9903 21.184 18.2935 21.8198 17.7667 22.6512C17.2399 23.4663 16.9765 24.4444 16.9765 25.5856Z" fill="#F9E0E2"></path><path d="M30.7238 25.5856C30.7238 24.2814 30.9618 23.0914 31.4376 22.0154C31.9134 20.9232 32.5762 19.9858 33.4258 19.2033C34.2925 18.4045 35.2951 17.7851 36.4337 17.3449C37.5723 16.9048 38.8128 16.6847 40.1553 16.6847C41.5148 16.6847 42.7639 16.9048 43.9024 17.3449C45.041 17.7851 46.0351 18.4045 46.8848 19.2033C47.7515 19.9858 48.4142 20.9232 48.8731 22.0154C49.3489 23.0914 49.5868 24.2814 49.5868 25.5856C49.5868 26.8734 49.3489 28.0716 48.8731 29.1802C48.4142 30.2724 47.76 31.2261 46.9103 32.0412C46.0776 32.84 45.0835 33.4676 43.9279 33.9241C42.7893 34.3642 41.5318 34.5843 40.1553 34.5843C38.7788 34.5843 37.5128 34.3642 36.3572 33.9241C35.2187 33.4676 34.2245 32.84 33.3749 32.0412C32.5422 31.2261 31.8879 30.2724 31.4121 29.1802C30.9533 28.0716 30.7238 26.8734 30.7238 25.5856ZM34.5984 25.5856C34.5984 26.6778 34.8278 27.6478 35.2866 28.4955C35.7625 29.3432 36.4167 30.0116 37.2494 30.5006C38.0991 30.9734 39.0677 31.2098 40.1553 31.2098C41.2599 31.2098 42.2286 30.9734 43.0612 30.5006C43.8939 30.0116 44.5397 29.3432 44.9985 28.4955C45.4743 27.6478 45.7122 26.6778 45.7122 25.5856C45.7122 24.4934 45.4828 23.5234 45.024 22.6757C44.5652 21.828 43.9194 21.1677 43.0867 20.695C42.254 20.2059 41.2769 19.9614 40.1553 19.9614C39.0677 19.9614 38.0991 20.2059 37.2494 20.695C36.4167 21.1677 35.7625 21.828 35.2866 22.6757C34.8278 23.5234 34.5984 24.4934 34.5984 25.5856Z" fill="#F9E0E2"></path><path d="M65.0735 17.027H68.6166V35L55.9734 23.5804V34.1441H52.4047V16.1712L65.0735 27.5907V17.027Z" fill="#F9E0E2"></path><path d="M70.6842 20.2059V17.027H83.9647V20.2059H79.147V34.1441H75.4764V20.2059H70.6842Z" fill="#F9E0E2"></path><path d="M95.5531 34.1441L93.6923 30.2806H87.5746L85.7393 34.1441H81.5843L90.6334 16L99.7081 34.1441H95.5531ZM90.6334 22.6023L88.4413 27.4929H92.8256L90.6334 22.6023Z" fill="#F9E0E2"></path><path d="M101.643 17.027H105.365V34.1441H101.643V17.027Z" fill="#F9E0E2"></path><path d="M121.879 17.027H125.423V35L112.779 23.5804V34.1441H109.211V16.1712L121.879 27.5907V17.027Z" fill="#F9E0E2"></path><path d="M129.274 17.027H140.643V20.0103H132.843V23.6049H140.133V26.5148H132.843V31.1609H140.643V34.1441H129.274V17.027Z" fill="#F9E0E2"></path><path d="M144.235 17.027H150.251C151.661 17.027 152.859 17.2634 153.845 17.7362C154.848 18.1926 155.612 18.8284 156.139 19.6435C156.666 20.4586 156.929 21.4123 156.929 22.5045C156.929 23.7109 156.607 24.7542 155.961 25.6345C155.315 26.4985 154.38 27.1261 153.157 27.5174L158 34.1441H153.641L149.486 27.9331H147.906V34.1441H144.235V17.027ZM150.021 20.0592H147.906V25.1454H150.021C150.973 25.1454 151.729 24.9254 152.29 24.4852C152.851 24.0287 153.131 23.4011 153.131 22.6023C153.131 21.7872 152.851 21.1596 152.29 20.7194C151.729 20.2793 150.973 20.0592 150.021 20.0592Z" fill="#F9E0E2"></path></svg>