<svg xmlns="http://www.w3.org/2000/svg" width="57" height="57" viewBox="0 0 57 57" fill="none"><path d="M19.2629 27.4781C17.8403 27.4781 16.5542 27.2345 15.4044 26.7474C14.2742 26.2602 13.3778 25.5586 12.7152 24.6427C12.0527 23.7268 11.7116 22.6453 11.6921 21.3981H16.0768C16.1352 22.2361 16.4275 22.8986 16.9537 23.3858C17.4993 23.873 18.2398 24.1166 19.1752 24.1166C20.1301 24.1166 20.8803 23.8925 21.426 23.4443C21.9716 22.9766 22.2444 22.3725 22.2444 21.632C22.2444 21.0279 22.0593 20.5309 21.6891 20.1412C21.3188 19.7515 20.8511 19.4494 20.286 19.235C19.7403 19.0012 18.9803 18.7479 18.006 18.475C16.6809 18.0853 15.5993 17.7053 14.7614 17.335C13.9429 16.9453 13.2316 16.3704 12.6275 15.6104C12.0429 14.8309 11.7506 13.7981 11.7506 12.512C11.7506 11.3038 12.0527 10.2515 12.6568 9.35505C13.2609 8.45864 14.1085 7.77659 15.1998 7.30889C16.2911 6.82171 17.5383 6.57812 18.9414 6.57812C21.046 6.57812 22.7511 7.09454 24.0568 8.12736C25.3819 9.14069 26.1127 10.5633 26.2491 12.395H21.7475C21.7085 11.6935 21.4065 11.1186 20.8414 10.6704C20.2957 10.2027 19.565 9.96889 18.6491 9.96889C17.8501 9.96889 17.207 10.1735 16.7198 10.5827C16.2521 10.992 16.0183 11.5863 16.0183 12.3658C16.0183 12.9115 16.1937 13.3694 16.5444 13.7397C16.9147 14.0904 17.3629 14.3827 17.8891 14.6166C18.4347 14.8309 19.1947 15.0843 20.1691 15.3766C21.4942 15.7663 22.5757 16.1561 23.4137 16.5458C24.2516 16.9356 24.9727 17.5202 25.5768 18.2997C26.1809 19.0792 26.4829 20.1022 26.4829 21.3689C26.4829 22.4602 26.2003 23.4735 25.6352 24.4089C25.0701 25.3443 24.2419 26.0945 23.1506 26.6597C22.0593 27.2053 20.7634 27.4781 19.2629 27.4781Z" fill="#E23125"></path><path d="M33.6018 6.87109V19.4988C33.6018 20.8824 33.9623 21.9444 34.6834 22.6849C35.4044 23.406 36.4177 23.7665 37.7234 23.7665C39.0485 23.7665 40.0716 23.406 40.7926 22.6849C41.5136 21.9444 41.8741 20.8824 41.8741 19.4988V6.87109H45.9957V19.4696C45.9957 21.2039 45.6157 22.6752 44.8557 23.8834C44.1152 25.0721 43.1116 25.9685 41.8449 26.5726C40.5977 27.1767 39.2044 27.4788 37.6649 27.4788C36.1449 27.4788 34.7613 27.1767 33.5141 26.5726C32.2864 25.9685 31.3121 25.0721 30.5911 23.8834C29.87 22.6752 29.5095 21.2039 29.5095 19.4696V6.87109H33.6018Z" fill="#E23125"></path><path d="M38.3213 29.9633C39.7439 29.9633 41.03 30.2069 42.1798 30.694C43.31 31.1812 44.2064 31.8828 44.869 32.7987C45.5316 33.7146 45.8726 34.7961 45.8921 36.0433H41.5075C41.449 35.2053 41.1567 34.5428 40.6306 34.0556C40.0849 33.5684 39.3444 33.3248 38.409 33.3248C37.4541 33.3248 36.7039 33.5489 36.1582 33.9971C35.6126 34.4648 35.3398 35.0689 35.3398 35.8094C35.3398 36.4135 35.5249 36.9105 35.8952 37.3002C36.2654 37.6899 36.7331 37.992 37.2982 38.2064C37.8439 38.4402 38.6039 38.6935 39.5782 38.9664C40.9034 39.3561 41.9849 39.7361 42.8229 40.1064C43.6413 40.4961 44.3526 41.071 44.9567 41.831C45.5413 42.6105 45.8336 43.6433 45.8336 44.9294C45.8336 46.1376 45.5316 47.1899 44.9275 48.0864C44.3234 48.9828 43.4757 49.6648 42.3844 50.1325C41.2931 50.6197 40.0459 50.8633 38.6429 50.8633C36.5382 50.8633 34.8331 50.3469 33.5275 49.3141C32.2023 48.3007 31.4716 46.8782 31.3352 45.0464H35.8367C35.8757 45.7479 36.1777 46.3228 36.7429 46.771C37.2885 47.2387 38.0193 47.4725 38.9352 47.4725C39.7341 47.4725 40.3772 47.2679 40.8644 46.8587C41.3321 46.4494 41.5659 45.8551 41.5659 45.0756C41.5659 44.5299 41.3906 44.072 41.0398 43.7017C40.6695 43.351 40.2213 43.0587 39.6952 42.8248C39.1495 42.6105 38.3895 42.3571 37.4152 42.0648C36.09 41.6751 35.0085 41.2853 34.1706 40.8956C33.3326 40.5058 32.6116 39.9212 32.0075 39.1417C31.4034 38.3623 31.1013 37.3392 31.1013 36.0725C31.1013 34.9812 31.3839 33.9679 31.949 33.0325C32.5141 32.0971 33.3423 31.3469 34.4336 30.7817C35.5249 30.2361 36.8208 29.9633 38.3213 29.9633Z" fill="#E23125"></path><path d="M24.0854 50.8633V38.2356C24.0854 36.852 23.7249 35.7899 23.0039 35.0494C22.2829 34.3284 21.2695 33.9679 19.9639 33.9679C18.6388 33.9679 17.6157 34.3284 16.8947 35.0494C16.1736 35.7899 15.8131 36.852 15.8131 38.2356V50.8633H11.6916V38.2648C11.6916 36.5305 12.0716 35.0592 12.8316 33.851C13.5721 32.6623 14.5757 31.7658 15.8423 31.1617C17.0895 30.5576 18.4829 30.2556 20.0224 30.2556C21.5424 30.2556 22.9259 30.5576 24.1731 31.1617C25.4008 31.7658 26.3752 32.6623 27.0962 33.851C27.8172 35.0592 28.1777 36.5305 28.1777 38.2648V50.8633H24.0854Z" fill="#E23125"></path><path fill-rule="evenodd" clip-rule="evenodd" d="M55 2H2V55H55V2ZM0 0V57H57V0H0Z" fill="#E23125"></path></svg>