<svg xmlns="http://www.w3.org/2000/svg" id="a7bfeb3e-4872-466f-a972-e7973739345d" data-name="Layer 1" width="75.2886" height="66" viewBox="0 0 75.2886 66"><path id="ec6179ab-6f29-477f-8431-51c1dbab4256" data-name="Fill-1-Copy-7" d="M53.3653,19.386c-9.8693,32.2855,6.1235,31.8329-7.1389,41.2306A29.1943,29.1943,0,0,1,5.3387,53.4179a29.7533,29.7533,0,0,1,7.1385-41.23C25.74,2.79,63.2345-12.8994,53.3653,19.386" style="fill-rule:evenodd;opacity:0.05"></path><path d="M70.05,10.71H30.2389A5.1993,5.1993,0,0,0,25,15.856V50.8538A5.1993,5.1993,0,0,0,30.2389,56H70.05a5.1993,5.1993,0,0,0,5.2388-5.1462V15.856A5.1993,5.1993,0,0,0,70.05,10.71ZM30.2389,12.7682H70.05a3.12,3.12,0,0,1,3.1436,3.0878v3.0329H27.0953V15.856A3.12,3.12,0,0,1,30.2389,12.7682ZM70.05,53.9415H30.2389a3.12,3.12,0,0,1-3.1436-3.0877V21.3949H73.1934V50.8538A3.12,3.12,0,0,1,70.05,53.9415Z" style="fill-rule:evenodd"></path><circle cx="31" cy="16" r="1"></circle><path d="M34,17a1,1,0,1,0-1-1A1,1,0,0,0,34,17Z" style="fill-rule:evenodd"></path><circle cx="37" cy="16" r="1"></circle><path d="M54.705,41.2905a8.451,8.451,0,1,0-1.5282,1.3l5.1157,5.1167a1,1,0,1,0,1.4148-1.4142Zm-12.58-5.79A6.3756,6.3756,0,1,1,53.01,40.0019a.9956.9956,0,0,0-.7171.2908.9727.9727,0,0,0-.2542.5067A6.3715,6.3715,0,0,1,42.1249,35.5Z" style="fill-rule:evenodd"></path></svg>