<svg xmlns="http://www.w3.org/2000/svg" id="ba7f2bb4-0985-40b2-89f5-846f3edc52c2" data-name="Layer 1" width="83.1669" height="79.4606" viewBox="0 0 83.1669 79.4606"><path d="M57.3667,51.8579a4.5,4.5,0,1,0,6.3546.345A4.5,4.5,0,0,0,57.3667,51.8579Z" transform="translate(0 0)" style="fill-rule:evenodd"></path><path d="M81.739,44.1024,30.33.9368a4,4,0,0,0-5.6355.4912L.9368,29.7228a4,4,0,0,0,.4912,5.6354L52.8369,78.5239a4,4,0,0,0,5.6355-.4912L82.23,49.7378A4,4,0,0,0,81.739,44.1024Zm-1.0405,4.3494L56.9407,76.7466a2,2,0,0,1-2.8177.2456L2.7141,33.8266a2,2,0,0,1-.2457-2.8178L26.2262,2.7141a2,2,0,0,1,2.8177-.2457L80.4529,45.634A2,2,0,0,1,80.6985,48.4518Z" transform="translate(0 0)" style="fill-rule:evenodd"></path></svg>