<svg xmlns="http://www.w3.org/2000/svg" width="96" height="46" viewBox="0 0 96 46" fill="none"><path d="M11.265 34.144C10.121 34.144 8.85964 33.9533 7.48097 33.572C6.13164 33.22 4.89964 32.692 3.78497 31.988V33.836H0.396973L0.924973 23.54H3.82897C4.09297 26.004 4.92897 27.8667 6.33697 29.128C7.77431 30.36 9.51964 30.976 11.573 30.976C13.1276 30.976 14.4183 30.5653 15.445 29.744C16.501 28.9227 17.0436 27.9547 17.073 26.84C17.1316 25.8133 16.8236 24.9627 16.149 24.288C15.4743 23.584 14.609 22.9973 13.553 22.528C12.497 22.0293 11.4263 21.56 10.341 21.12C8.49297 20.3573 6.83564 19.5067 5.36897 18.568C3.90231 17.6293 2.77297 16.5 1.98097 15.18C1.18897 13.86 0.836973 12.2467 0.924973 10.34C0.983639 9.43067 1.20364 8.492 1.58497 7.524C1.99564 6.52667 2.61164 5.61733 3.43297 4.796C4.28364 3.94534 5.38364 3.256 6.73297 2.728C8.08231 2.2 9.72497 1.936 11.661 1.936C12.8343 1.936 14.1103 2.112 15.489 2.464C16.8676 2.816 18.0116 3.344 18.921 4.048V2.244H22.309L21.781 12.496H18.877C18.613 10.0613 17.8503 8.21333 16.589 6.952C15.357 5.69067 13.7143 5.07467 11.661 5.104C10.3996 5.104 9.27031 5.456 8.27297 6.16C7.30497 6.864 6.79164 7.77333 6.73297 8.888C6.67431 10.2373 7.18764 11.3667 8.27297 12.276C9.38764 13.1853 11.133 14.124 13.509 15.092C14.5943 15.532 15.709 16.0453 16.853 16.632C17.997 17.2187 19.0383 17.908 19.977 18.7C20.945 19.492 21.7076 20.4307 22.265 21.516C22.8516 22.572 23.1156 23.8187 23.057 25.256C22.969 26.9867 22.4116 28.5267 21.385 29.876C20.3876 31.2253 19.0236 32.2813 17.293 33.044C15.5623 33.7773 13.553 34.144 11.265 34.144Z" fill="#E23125"></path><path d="M35.1198 10.956C36.7625 10.956 38.2438 11.3373 39.5638 12.1C40.9131 12.8627 41.9838 13.9773 42.7758 15.444C43.5678 16.9107 43.9638 18.6853 43.9638 20.768C43.9638 23.0853 43.5091 25.256 42.5998 27.28C41.7198 29.2747 40.4585 30.888 38.8158 32.12C37.1731 33.3227 35.2078 33.924 32.9198 33.924C30.9545 33.924 29.3118 33.484 27.9918 32.604C26.6718 31.6947 25.6891 30.4773 25.0438 28.952C24.3985 27.4267 24.0758 25.7547 24.0758 23.936C24.0758 21.5893 24.5158 19.4333 25.3958 17.468C26.3051 15.5027 27.5811 13.9333 29.2238 12.76C30.8958 11.5573 32.8611 10.956 35.1198 10.956ZM34.4598 13.86C33.5798 13.8307 32.8025 14.2267 32.1278 15.048C31.4825 15.84 30.9691 16.9107 30.5878 18.26C30.2358 19.6093 30.0598 21.0907 30.0598 22.704C30.0598 23.584 30.1038 24.508 30.1918 25.476C30.3091 26.444 30.4998 27.3533 30.7638 28.204C31.0571 29.0253 31.4238 29.7 31.8638 30.228C32.3331 30.756 32.9198 31.02 33.6238 31.02C34.3865 31.02 35.0318 30.7267 35.5598 30.14C36.0878 29.5533 36.5131 28.8053 36.8358 27.896C37.1878 26.9573 37.4371 25.9747 37.5838 24.948C37.7598 23.9213 37.8625 22.9533 37.8918 22.044C37.9211 21.252 37.8918 20.3867 37.8038 19.448C37.7158 18.5093 37.5545 17.6147 37.3198 16.764C37.0851 15.9133 36.7331 15.224 36.2638 14.696C35.7945 14.1387 35.1931 13.86 34.4598 13.86Z" fill="#E23125"></path><path d="M57.9643 0C59.2843 0 60.2963 0.308001 61.0003 0.924002C61.7336 1.54 62.1003 2.31733 62.1003 3.256C62.1003 3.57867 62.0123 3.96 61.8363 4.4C61.6603 4.81067 61.367 5.17733 60.9563 5.5C60.575 5.79333 60.047 5.94 59.3723 5.94C58.727 5.91067 58.1697 5.64667 57.7003 5.148C57.2603 4.62 57.099 3.97467 57.2163 3.212C57.099 3.15334 56.9083 3.124 56.6443 3.124C56.1457 3.124 55.735 3.388 55.4123 3.916C55.0896 4.444 54.8256 5.13333 54.6203 5.984C54.4443 6.83467 54.2977 7.744 54.1803 8.712C54.0923 9.68 54.0043 10.5893 53.9163 11.44H59.5923L59.2843 14.476L53.7403 14.564C53.6523 15.8253 53.5496 17.3067 53.4323 19.008C53.315 20.68 53.183 22.44 53.0363 24.288C52.8896 26.1067 52.743 27.8667 52.5963 29.568C52.4497 31.24 52.303 32.692 52.1563 33.924C51.8923 36.1827 51.3936 38.1773 50.6603 39.908C49.927 41.6387 48.9003 42.9733 47.5803 43.912C46.2603 44.88 44.603 45.364 42.6083 45.364C41.259 45.364 40.2323 45.0707 39.5283 44.484C38.795 43.9267 38.4283 43.164 38.4283 42.196C38.4283 41.844 38.5163 41.448 38.6923 41.008C38.8683 40.568 39.1616 40.1867 39.5723 39.864C39.983 39.5413 40.511 39.3947 41.1563 39.424C41.831 39.4533 42.3883 39.7173 42.8283 40.216C43.2683 40.744 43.4297 41.3893 43.3123 42.152C43.4883 42.2107 43.679 42.24 43.8843 42.24C44.383 42.24 44.7936 41.976 45.1163 41.448C45.439 40.92 45.6883 40.2307 45.8643 39.38C46.0696 38.5293 46.2163 37.62 46.3043 36.652C46.4217 35.684 46.5243 34.7747 46.6123 33.924C46.7296 32.6627 46.847 31.196 46.9643 29.524C47.0817 27.8227 47.199 26.0627 47.3163 24.244C47.463 22.396 47.595 20.636 47.7123 18.964C47.859 17.292 47.9763 15.84 48.0643 14.608L44.5443 14.652L44.9403 11.44H48.4603C48.7243 9.18134 49.2083 7.20133 49.9123 5.5C50.6456 3.76933 51.6723 2.42 52.9923 1.452C54.3123 0.484 55.9697 0 57.9643 0Z" fill="#E23125"></path><path d="M68.6477 4.796L67.7677 11.44H73.2677L73.0037 14.476L67.5037 14.564C67.3863 15.62 67.2543 16.764 67.1077 17.996C66.961 19.1987 66.829 20.3867 66.7117 21.56C66.6237 22.704 66.5357 23.7453 66.4477 24.684C66.389 25.5933 66.3597 26.2973 66.3597 26.796C66.3597 27.1773 66.4037 27.6027 66.4917 28.072C66.5797 28.512 66.7703 28.8933 67.0637 29.216C67.357 29.5387 67.8263 29.7 68.4717 29.7C68.7063 29.7 69.0437 29.6413 69.4837 29.524C69.953 29.3773 70.4517 29.1133 70.9797 28.732C71.5077 28.3507 71.9917 27.7493 72.4317 26.928L74.6757 28.336C73.6783 30.2133 72.461 31.6213 71.0237 32.56C69.5863 33.4693 68.0463 33.924 66.4037 33.924C64.7903 33.924 63.573 33.5867 62.7517 32.912C61.9597 32.2373 61.4317 31.3573 61.1677 30.272C60.9037 29.1573 60.7863 27.9987 60.8157 26.796C60.8743 25.7987 60.9477 24.6253 61.0357 23.276C61.1237 21.8973 61.241 20.46 61.3877 18.964C61.5343 17.4387 61.681 15.9867 61.8277 14.608L58.3077 14.652L58.7037 11.44C60.8743 11.44 62.473 10.868 63.4997 9.724C64.5557 8.58 65.289 6.93734 65.6997 4.796H68.6477Z" fill="#E23125"></path><path d="M78.287 45.364C76.9377 45.364 75.8964 45.0413 75.163 44.396C74.459 43.7507 74.107 42.9293 74.107 41.932C74.107 40.9933 74.4004 40.2453 74.987 39.688C75.603 39.1307 76.2484 38.852 76.923 38.852C78.4777 38.852 79.3724 39.644 79.607 41.228C79.6657 41.2573 79.739 41.272 79.827 41.272C79.915 41.272 79.9884 41.272 80.047 41.272C80.5457 41.272 81.059 41.0813 81.587 40.7C82.1444 40.3187 82.6724 39.8493 83.171 39.292C83.6697 38.7347 84.1097 38.1627 84.491 37.576C84.9017 37.0187 85.195 36.5347 85.371 36.124C85.1657 34.716 84.8284 33.2053 84.359 31.592C83.8897 29.9493 83.347 28.292 82.731 26.62C82.1444 24.9187 81.5284 23.2907 80.883 21.736C80.2377 20.152 79.6364 18.7147 79.079 17.424C78.8737 16.9547 78.595 16.4413 78.243 15.884C77.9204 15.3267 77.5097 15.048 77.011 15.048C76.6297 15.048 76.2337 15.2533 75.823 15.664C75.4417 16.0747 75.1777 16.9693 75.031 18.348L72.567 17.996C72.6257 17.3507 72.7724 16.632 73.007 15.84C73.271 15.048 73.6524 14.2853 74.151 13.552C74.679 12.7893 75.339 12.1733 76.131 11.704C76.9524 11.2053 77.9497 10.956 79.123 10.956C80.091 10.956 80.9124 11.1907 81.587 11.66C82.291 12.1 82.8777 12.672 83.347 13.376C83.8457 14.08 84.2417 14.7987 84.535 15.532C84.9457 16.5293 85.4444 17.82 86.031 19.404C86.6177 20.988 87.175 22.7187 87.703 24.596C88.2604 26.444 88.7004 28.3213 89.023 30.228H89.067C89.9764 28.204 90.6657 26.2827 91.135 24.464C91.6337 22.6453 91.9417 21.0027 92.059 19.536C92.0884 19.2133 92.0884 18.7147 92.059 18.04C92.0297 17.336 91.8537 16.808 91.531 16.456C91.4137 16.4853 91.311 16.5 91.223 16.5C91.135 16.5 91.0324 16.5 90.915 16.5C90.1817 16.5 89.551 16.2507 89.023 15.752C88.495 15.2533 88.231 14.652 88.231 13.948C88.231 12.9213 88.5537 12.1733 89.199 11.704C89.8444 11.2053 90.5337 10.956 91.267 10.956C92.3524 10.956 93.2177 11.264 93.863 11.88C94.5377 12.496 95.0217 13.2733 95.315 14.212C95.6084 15.1507 95.755 16.1187 95.755 17.116C95.755 18.3773 95.5497 19.9027 95.139 21.692C94.7284 23.4813 94.1417 25.388 93.379 27.412C92.6457 29.4067 91.7804 31.3867 90.783 33.352C89.6684 35.4933 88.4364 37.4733 87.087 39.292C85.7377 41.14 84.315 42.6067 82.819 43.692C81.323 44.8067 79.8124 45.364 78.287 45.364Z" fill="#E23125"></path></svg>